<svg width="24" height="25" viewBox="0 0 24 25" fill="none" xmlns="http://www.w3.org/2000/svg">
<path d="M10 10.5C10 10.3022 9.94136 10.1089 9.83147 9.94443C9.72159 9.77998 9.56541 9.65181 9.38269 9.57612C9.19996 9.50043 8.9989 9.48063 8.80491 9.51921C8.61093 9.5578 8.43275 9.65304 8.2929 9.79289C8.15305 9.93275 8.0578 10.1109 8.01922 10.3049C7.98063 10.4989 8.00044 10.7 8.07612 10.8827C8.15181 11.0654 8.27998 11.2216 8.44443 11.3315C8.60888 11.4414 8.80222 11.5 9 11.5C9.26522 11.5 9.51957 11.3946 9.70711 11.2071C9.89465 11.0196 10 10.7652 10 10.5ZM14.5 14.56C14.3865 14.4935 14.2609 14.45 14.1305 14.4321C14.0002 14.4142 13.8675 14.4222 13.7403 14.4556C13.613 14.4891 13.4936 14.5473 13.3889 14.627C13.2841 14.7067 13.1962 14.8062 13.13 14.92C13.0165 15.1196 12.8521 15.2856 12.6536 15.401C12.4551 15.5165 12.2296 15.5773 12 15.5773C11.7704 15.5773 11.5449 15.5165 11.3464 15.401C11.1479 15.2856 10.9835 15.1196 10.87 14.92C10.8038 14.8062 10.7159 14.7067 10.6112 14.627C10.5064 14.5473 10.387 14.4891 10.2597 14.4556C10.1325 14.4222 9.99984 14.4142 9.86947 14.4321C9.73909 14.45 9.61354 14.4935 9.5 14.56C9.27127 14.6919 9.104 14.9089 9.03468 15.1637C8.96537 15.4185 8.99963 15.6904 9.13 15.92C9.42005 16.4248 9.83811 16.8442 10.342 17.1358C10.8459 17.4274 11.4178 17.581 12 17.581C12.5822 17.581 13.1541 17.4274 13.658 17.1358C14.1619 16.8442 14.58 16.4248 14.87 15.92C15.0004 15.6904 15.0346 15.4185 14.9653 15.1637C14.896 14.9089 14.7287 14.6919 14.5 14.56ZM15 9.5C14.8022 9.5 14.6089 9.55865 14.4444 9.66853C14.28 9.77841 14.1518 9.93459 14.0761 10.1173C14.0004 10.3 13.9806 10.5011 14.0192 10.6951C14.0578 10.8891 14.153 11.0673 14.2929 11.2071C14.4328 11.347 14.6109 11.4422 14.8049 11.4808C14.9989 11.5194 15.2 11.4996 15.3827 11.4239C15.5654 11.3482 15.7216 11.22 15.8315 11.0556C15.9414 10.8911 16 10.6978 16 10.5C16 10.2348 15.8946 9.98043 15.7071 9.79289C15.5196 9.60536 15.2652 9.5 15 9.5ZM12 2.5C10.0222 2.5 8.08879 3.08649 6.4443 4.1853C4.79981 5.28412 3.51809 6.8459 2.76121 8.67317C2.00433 10.5004 1.8063 12.5111 2.19215 14.4509C2.578 16.3907 3.53041 18.1725 4.92894 19.5711C6.32746 20.9696 8.10929 21.922 10.0491 22.3079C11.9889 22.6937 13.9996 22.4957 15.8268 21.7388C17.6541 20.9819 19.2159 19.7002 20.3147 18.0557C21.4135 16.4112 22 14.4778 22 12.5C22 11.1868 21.7413 9.88642 21.2388 8.67317C20.7363 7.45991 19.9997 6.35752 19.0711 5.42893C18.1425 4.50035 17.0401 3.76375 15.8268 3.2612C14.6136 2.75866 13.3132 2.5 12 2.5ZM12 20.5C10.1373 20.508 8.33021 19.8658 6.89032 18.6842C5.45043 17.5025 4.46802 15.8554 4.11252 14.0269C3.75702 12.1984 4.05071 10.3032 4.94293 8.66811C5.83516 7.03299 7.27 5.76047 9 5.07C8.98972 5.21315 8.98972 5.35685 9 5.5C9 6.29565 9.31607 7.05871 9.87868 7.62132C10.4413 8.18393 11.2044 8.5 12 8.5C12.2652 8.5 12.5196 8.39464 12.7071 8.20711C12.8946 8.01957 13 7.76522 13 7.5C13 7.23478 12.8946 6.98043 12.7071 6.79289C12.5196 6.60536 12.2652 6.5 12 6.5C11.7348 6.5 11.4804 6.39464 11.2929 6.20711C11.1054 6.01957 11 5.76522 11 5.5C11 5.23478 11.1054 4.98043 11.2929 4.79289C11.4804 4.60536 11.7348 4.5 12 4.5C14.1217 4.5 16.1566 5.34285 17.6569 6.84315C19.1572 8.34344 20 10.3783 20 12.5C20 14.6217 19.1572 16.6566 17.6569 18.1569C16.1566 19.6571 14.1217 20.5 12 20.5Z" fill="#2E3038"/>
</svg>
