<svg width="24" height="25" viewBox="0 0 24 25" fill="none" xmlns="http://www.w3.org/2000/svg">
<path d="M17.4764 7.05316L14.6378 4.21374C14.5449 4.12003 14.4344 4.04565 14.3126 3.99489C14.1908 3.94413 14.0601 3.918 13.9282 3.918C13.7962 3.918 13.6656 3.94413 13.5438 3.99489C13.422 4.04565 13.3115 4.12003 13.2185 4.21374C13.0324 4.40106 12.9279 4.65446 12.9279 4.91859C12.9279 5.18273 13.0324 5.43613 13.2185 5.62345L15.3375 7.74301L7.2415 15.8414L5.12255 13.7218C4.93528 13.5356 4.68195 13.4311 4.4179 13.4311C4.15384 13.4311 3.90051 13.5356 3.71324 13.7218C3.61956 13.8147 3.5452 13.9253 3.49446 14.0471C3.44372 14.169 3.41759 14.2997 3.41759 14.4316C3.41759 14.5636 3.44372 14.6943 3.49446 14.8161C3.5452 14.938 3.61956 15.0486 3.71324 15.1415L6.52186 17.9509L9.33047 20.7603C9.42304 20.8548 9.53343 20.93 9.65524 20.9814C9.77706 21.0329 9.90787 21.0597 10.0401 21.0603C10.2386 21.0614 10.433 21.0034 10.5985 20.8936C10.7639 20.7839 10.8929 20.6273 10.969 20.4439C11.0452 20.2605 11.065 20.0586 11.0259 19.8638C10.9869 19.6691 10.8907 19.4905 10.7498 19.3506L8.6608 17.2611L16.7568 9.16272L18.8757 11.2823C18.9689 11.3748 19.0794 11.4481 19.201 11.498C19.3225 11.5478 19.4526 11.5732 19.5839 11.5728C19.7153 11.5723 19.8452 11.546 19.9664 11.4953C20.0875 11.4446 20.1975 11.3705 20.29 11.2773C20.3826 11.1841 20.4559 11.0735 20.5057 10.952C20.5555 10.8304 20.5809 10.7003 20.5805 10.5689C20.58 10.4375 20.5537 10.3075 20.503 10.1863C20.4523 10.0652 20.3782 9.95514 20.2851 9.86258L17.4764 7.05316ZM3.71324 17.9609C3.52503 17.7726 3.26977 17.6669 3.0036 17.6669C2.73743 17.6669 2.48216 17.7726 2.29395 17.9609C2.10574 18.1492 2 18.4045 2 18.6708C2 18.937 2.10574 19.1924 2.29395 19.3806L5.12255 22.21C5.21594 22.3027 5.3267 22.376 5.44848 22.4258C5.57026 22.4755 5.70065 22.5007 5.8322 22.5C5.96374 22.5007 6.09414 22.4755 6.21591 22.4258C6.33769 22.376 6.44845 22.3027 6.54185 22.21C6.63553 22.1171 6.70989 22.0065 6.76063 21.8847C6.81137 21.7629 6.8375 21.6322 6.8375 21.5002C6.8375 21.3682 6.81137 21.2375 6.76063 21.1157C6.70989 20.9939 6.63553 20.8833 6.54185 20.7903L3.71324 17.9609ZM21.7043 5.62345L18.8757 2.79403C18.7826 2.70081 18.6719 2.62687 18.5502 2.57642C18.4284 2.52597 18.2979 2.5 18.1661 2.5C18.0343 2.5 17.9038 2.52597 17.782 2.57642C17.6603 2.62687 17.5496 2.70081 17.4564 2.79403C17.3633 2.88725 17.2893 2.99792 17.2389 3.11972C17.1885 3.24151 17.1625 3.37205 17.1625 3.50389C17.1625 3.63572 17.1885 3.76626 17.2389 3.88806C17.2893 4.00985 17.3633 4.12052 17.4564 4.21374L20.2851 7.04316C20.378 7.13687 20.4885 7.21125 20.6103 7.262C20.7321 7.31276 20.8628 7.3389 20.9947 7.3389C21.1266 7.3389 21.2573 7.31276 21.3791 7.262C21.5009 7.21125 21.6114 7.13687 21.7043 7.04316C21.798 6.95021 21.8724 6.83964 21.9231 6.7178C21.9739 6.59597 22 6.46529 22 6.3333C22 6.20132 21.9739 6.07064 21.9231 5.94881C21.8724 5.82697 21.798 5.71639 21.7043 5.62345Z" fill="#2E3038"/>
</svg>
