<svg width="25" height="25" viewBox="0 0 25 25" fill="none" xmlns="http://www.w3.org/2000/svg">
<path d="M9.00008 25C9.7956 25 10.5588 24.684 11.1214 24.1212C11.6839 23.5586 12 22.7957 12 22C12 21.2043 11.6839 20.4414 11.1214 19.8788C10.5588 19.316 9.7956 19 9.00008 19C8.2044 19 7.44138 19.316 6.87864 19.8788C6.31606 20.4414 6 21.2043 6 22C6.00082 22.7955 6.31709 23.558 6.87943 24.1203C7.44202 24.6829 8.20456 24.9992 9.00008 24.9999V25ZM9.00008 20.77C9.32622 20.77 9.6392 20.8996 9.86987 21.1303C10.1005 21.3609 10.2302 21.6737 10.2302 22C10.2302 22.3262 10.1005 22.6391 9.86987 22.8698C9.63921 23.1005 9.32625 23.2301 9.00008 23.2301C8.67373 23.2301 8.36096 23.1005 8.13029 22.8698C7.89942 22.6391 7.76999 22.3262 7.76999 22C7.77061 21.6741 7.90045 21.3616 8.13111 21.1311C8.36157 20.9007 8.67394 20.7708 9.00006 20.77L9.00008 20.77Z" fill="#323232"/>
<path d="M21 22C21 21.2044 20.684 20.4414 20.1212 19.8788C19.5586 19.316 18.7957 19 18 19C17.2043 19 16.4413 19.316 15.8786 19.8788C15.316 20.4414 15 21.2043 15 22C15 22.7957 15.316 23.5586 15.8786 24.1212C16.4414 24.684 17.2043 25 18 25C18.7953 24.9992 19.558 24.6829 20.1203 24.1204C20.6827 23.558 20.9992 22.7955 20.9999 22.0001L21 22ZM16.77 22C16.77 21.6737 16.8996 21.3609 17.1303 21.1302C17.3609 20.8996 17.6736 20.77 18 20.77C18.3261 20.77 18.6391 20.8996 18.8698 21.1302C19.1004 21.3609 19.2301 21.6736 19.2301 22C19.2301 22.3261 19.1004 22.6391 18.8698 22.8698C18.6391 23.1004 18.3262 23.23 18 23.23C17.6741 23.2292 17.3615 23.0994 17.1311 22.8689C16.9006 22.6385 16.7708 22.3259 16.77 22L16.77 22Z" fill="#323232"/>
<path d="M24.1417 4.06999H5.75401L5.41718 2.06219C5.32117 1.48716 5.01301 0.963509 4.54749 0.585606C4.08217 0.207509 3.49039 0 2.87847 0H0.856686C0.550725 0 0.267864 0.155406 0.114884 0.407469C-0.0382948 0.659721 -0.0382948 0.970514 0.114884 1.22261C0.267864 1.47486 0.55072 1.63027 0.856686 1.63027H2.88128C3.08705 1.62781 3.28683 1.69585 3.44419 1.82206C3.60155 1.94829 3.70573 2.12416 3.738 2.31767L4.14057 4.73845H4.14077C4.13121 4.78678 4.12643 4.83586 4.12643 4.88514C4.12762 5.01799 4.16288 5.14857 4.22921 5.2655L5.63413 13.6881V13.7181V13.7179C5.63592 13.8108 5.65425 13.9027 5.68851 13.9897L5.85981 15.0112C5.99268 15.8451 6.43609 16.6054 7.10915 17.1541C7.78221 17.7028 8.64013 18.003 9.52634 18H20.7005C21.0067 18 21.2893 17.8446 21.4425 17.5925C21.5955 17.3403 21.5955 17.0295 21.4425 16.7774C21.2894 16.5251 21.0067 16.3697 20.7005 16.3697H9.51206C9.03639 16.3695 8.57644 16.208 8.21489 15.9143C7.85316 15.6205 7.61353 15.2136 7.53862 14.7668L7.50157 14.5412H20.1632C20.7941 14.5412 21.4074 14.3422 21.9069 13.9755C22.4065 13.6088 22.7643 13.095 22.9246 12.5145L24.9721 5.1054V5.10521C25.0392 4.86111 24.9837 4.60087 24.8217 4.40093C24.6596 4.20099 24.4092 4.08386 24.1439 4.08367L24.1417 4.06999ZM21.2662 12.088C21.2028 12.3211 21.06 12.5277 20.8598 12.6751C20.6598 12.8228 20.414 12.9029 20.1608 12.9031H7.22789L6.97372 11.3843H21.463L21.2662 12.088ZM21.463 11.3843H6.97372L6.02555 5.70037H23.0308L21.463 11.3843Z" fill="#323232"/>
</svg>
