<svg width="17" height="17" viewBox="0 0 17 17" fill="none" xmlns="http://www.w3.org/2000/svg">
<path d="M15.563 12.9703C15.0286 12.4319 13.7342 11.6461 13.1062 11.3294C12.2884 10.9175 12.2211 10.8838 11.5783 11.3614C11.1496 11.6801 10.8645 11.9648 10.3627 11.8577C9.86091 11.7507 8.7705 11.1473 7.81572 10.1956C6.86094 9.24396 6.22251 8.12199 6.11515 7.62191C6.00779 7.12184 6.29722 6.84017 6.6129 6.41043C7.05782 5.80468 7.02416 5.70373 6.64386 4.88597C6.34737 4.24994 5.53864 2.96779 4.99815 2.43608C4.41996 1.865 4.41996 1.96595 4.04741 2.12075C3.7441 2.24836 3.45312 2.40347 3.17811 2.58415C2.63963 2.94187 2.34078 3.23902 2.13178 3.68559C1.92279 4.13216 1.82889 5.17909 2.9082 7.13967C3.9875 9.10026 4.74473 10.1028 6.31203 11.6656C7.87933 13.2284 9.0845 14.0687 10.8463 15.0567C13.0258 16.2773 13.8618 16.0394 14.3097 15.8307C14.7577 15.6221 15.0562 15.326 15.4146 14.7875C15.5958 14.513 15.7512 14.2223 15.879 13.9193C16.0342 13.5481 16.1352 13.5481 15.563 12.9703Z" stroke="#636E72" stroke-miterlimit="10"/>
</svg>
