<svg width="27" height="28" viewBox="0 0 27 28" fill="none" xmlns="http://www.w3.org/2000/svg">
<path d="M8.57143 3.5H3.42857C3.19188 3.5 3 3.69188 3 3.92857V9.07143C3 9.30812 3.19188 9.5 3.42857 9.5H8.57143C8.80812 9.5 9 9.30812 9 9.07143V3.92857C9 3.69188 8.80812 3.5 8.57143 3.5Z" fill="white"/>
<path d="M16.5714 3.5H11.4286C11.1919 3.5 11 3.69188 11 3.92857V9.07143C11 9.30812 11.1919 9.5 11.4286 9.5H16.5714C16.8081 9.5 17 9.30812 17 9.07143V3.92857C17 3.69188 16.8081 3.5 16.5714 3.5Z" fill="white"/>
<path d="M24.5714 3.5H19.4286C19.1919 3.5 19 3.69188 19 3.92857V9.07143C19 9.30812 19.1919 9.5 19.4286 9.5H24.5714C24.8081 9.5 25 9.30812 25 9.07143V3.92857C25 3.69188 24.8081 3.5 24.5714 3.5Z" fill="white"/>
<path d="M8.57143 11.5H3.42857C3.19188 11.5 3 11.6919 3 11.9286V17.0714C3 17.3081 3.19188 17.5 3.42857 17.5H8.57143C8.80812 17.5 9 17.3081 9 17.0714V11.9286C9 11.6919 8.80812 11.5 8.57143 11.5Z" fill="white"/>
<path d="M16.5714 11.5H11.4286C11.1919 11.5 11 11.6919 11 11.9286V17.0714C11 17.3081 11.1919 17.5 11.4286 17.5H16.5714C16.8081 17.5 17 17.3081 17 17.0714V11.9286C17 11.6919 16.8081 11.5 16.5714 11.5Z" fill="white"/>
<path d="M24.5714 11.5H19.4286C19.1919 11.5 19 11.6919 19 11.9286V17.0714C19 17.3081 19.1919 17.5 19.4286 17.5H24.5714C24.8081 17.5 25 17.3081 25 17.0714V11.9286C25 11.6919 24.8081 11.5 24.5714 11.5Z" fill="white"/>
<path d="M8.57143 19.5H3.42857C3.19188 19.5 3 19.6919 3 19.9286V25.0714C3 25.3081 3.19188 25.5 3.42857 25.5H8.57143C8.80812 25.5 9 25.3081 9 25.0714V19.9286C9 19.6919 8.80812 19.5 8.57143 19.5Z" fill="white"/>
<path d="M16.5714 19.5H11.4286C11.1919 19.5 11 19.6919 11 19.9286V25.0714C11 25.3081 11.1919 25.5 11.4286 25.5H16.5714C16.8081 25.5 17 25.3081 17 25.0714V19.9286C17 19.6919 16.8081 19.5 16.5714 19.5Z" fill="white"/>
<path d="M24.5714 19.5H19.4286C19.1919 19.5 19 19.6919 19 19.9286V25.0714C19 25.3081 19.1919 25.5 19.4286 25.5H24.5714C24.8081 25.5 25 25.3081 25 25.0714V19.9286C25 19.6919 24.8081 19.5 24.5714 19.5Z" fill="white"/>
</svg>
