<svg width="24" height="25" viewBox="0 0 24 25" fill="none" xmlns="http://www.w3.org/2000/svg">
<path d="M21.6625 10.7493L12.6602 2.74875C12.4776 2.58842 12.243 2.5 12 2.5C11.757 2.5 11.5224 2.58842 11.3398 2.74875L2.33752 10.7493C2.18452 10.8846 2.07662 11.0635 2.02834 11.2619C1.98006 11.4604 1.99371 11.6689 2.06745 11.8593C2.13999 12.0473 2.26761 12.2089 2.43359 12.3231C2.59958 12.4373 2.7962 12.4988 2.99769 12.4994H3.99795V21.4999C3.99795 21.7652 4.10333 22.0195 4.29091 22.2071C4.4785 22.3946 4.73292 22.5 4.9982 22.5H19.0018C19.2671 22.5 19.5215 22.3946 19.7091 22.2071C19.8967 22.0195 20.0021 21.7652 20.0021 21.4999V12.4994H21.0023C21.2038 12.4988 21.4004 12.4373 21.5664 12.3231C21.7324 12.2089 21.86 12.0473 21.9325 11.8593C22.0063 11.6689 22.0199 11.4604 21.9717 11.2619C21.9234 11.0635 21.8155 10.8846 21.6625 10.7493ZM13.0003 20.4999H10.9997V17.4997C10.9997 17.2345 11.1051 16.9801 11.2927 16.7925C11.4803 16.605 11.7347 16.4996 12 16.4996C12.2653 16.4996 12.5197 16.605 12.7073 16.7925C12.8949 16.9801 13.0003 17.2345 13.0003 17.4997V20.4999ZM18.0015 20.4999H15.0008V17.4997C15.0008 16.704 14.6846 15.9409 14.1219 15.3782C13.5591 14.8156 12.7959 14.4995 12 14.4995C11.2041 14.4995 10.4409 14.8156 9.87813 15.3782C9.31538 15.9409 8.99923 16.704 8.99923 17.4997V20.4999H5.99846V12.4994H18.0015V20.4999ZM5.62836 10.4992L12 4.83888L18.3716 10.4992H5.62836Z" fill="#2E3038"/>
</svg>
