<svg width="17" height="17" viewBox="0 0 17 17" fill="none" xmlns="http://www.w3.org/2000/svg">
<path d="M6 5.96137C6 5.63591 6.09942 5.38019 6.29827 5.19421C6.49711 4.99893 6.75923 4.90129 7.08461 4.90129C7.42807 4.90129 7.69923 4.99893 7.89807 5.19421C8.09692 5.38019 8.19634 5.63591 8.19634 5.96137C8.19634 6.28684 8.09692 6.54721 7.89807 6.74249C7.69923 6.93777 7.42807 7.03541 7.08461 7.03541C6.75923 7.03541 6.49711 6.93777 6.29827 6.74249C6.09942 6.54721 6 6.28684 6 5.96137ZM6 11.0107C6 10.6853 6.09942 10.4295 6.29827 10.2436C6.49711 10.0483 6.75923 9.95064 7.08461 9.95064C7.42807 9.95064 7.69923 10.0483 7.89807 10.2436C8.09692 10.4295 8.19634 10.6853 8.19634 11.0107C8.19634 11.3362 8.09692 11.5966 7.89807 11.7918C7.69923 11.9871 7.42807 12.0848 7.08461 12.0848C6.75923 12.0848 6.49711 11.9871 6.29827 11.7918C6.09942 11.5966 6 11.3362 6 11.0107Z" fill="#E30611"/>
<path d="M9.6952 2C10.129 2.44635 10.4906 2.9392 10.7798 3.47854C11.069 4.00858 11.2995 4.55722 11.4713 5.12446C11.652 5.6824 11.7831 6.24964 11.8644 6.82618C11.9458 7.39342 11.991 7.94671 12 8.48605C11.991 8.9789 11.9458 9.50894 11.8644 10.0762C11.7831 10.6434 11.652 11.2153 11.4713 11.7918C11.2905 12.3591 11.051 12.917 10.7527 13.4657C10.4635 14.0143 10.1245 14.5258 9.73587 15L8.52924 14.2189C8.8727 13.7632 9.15289 13.2936 9.36982 12.8101C9.58674 12.3358 9.75847 11.8569 9.88501 11.3734C10.0115 10.8805 10.0974 10.3923 10.1426 9.9088C10.1968 9.41595 10.2285 8.9603 10.2375 8.54185C10.2285 8.0397 10.1878 7.5422 10.1155 7.04936C10.0522 6.54721 9.9528 6.04971 9.81722 5.55687C9.68164 5.05472 9.50539 4.57117 9.28847 4.10622C9.08059 3.63197 8.83655 3.18097 8.55636 2.75322L9.6952 2Z" fill="#E30611"/>
</svg>
