<svg width="24" height="24" viewBox="0 0 24 24" fill="none" xmlns="http://www.w3.org/2000/svg">
<path d="M17.7917 15.85L17.5311 16.197L17.8379 16.5038L23.2677 21.9336C23.4234 22.1125 23.5063 22.3435 23.4996 22.5808C23.4929 22.8224 23.3939 23.0522 23.223 23.223C23.0522 23.3939 22.8224 23.4929 22.5808 23.4996C22.3435 23.5063 22.1125 23.4234 21.9336 23.2677L16.5038 17.8379L16.197 17.5311L15.85 17.7917C14.193 19.0364 12.176 19.7083 10.1036 19.7061H10.103C4.8084 19.7061 0.5 15.3977 0.5 10.103C0.5 4.8084 4.8084 0.5 10.103 0.5C15.3977 0.5 19.7061 4.8084 19.7061 10.103V10.1036C19.7083 12.176 19.0364 14.193 17.7917 15.85ZM10.1024 17.8195H10.103C11.6292 17.8195 13.1211 17.3669 14.3901 16.519C15.659 15.6711 16.6481 14.466 17.2321 13.056C17.8162 11.646 17.969 10.0945 17.6712 8.59763C17.3735 7.10079 16.6386 5.72585 15.5594 4.64668C14.4802 3.56751 13.1053 2.83259 11.6084 2.53485C10.1116 2.23711 8.56008 2.38992 7.15008 2.97396C5.74008 3.558 4.53493 4.54704 3.68704 5.81601C2.83914 7.08497 2.38658 8.57687 2.38658 10.103L2.38658 10.1036C2.38904 12.1493 3.20274 14.1104 4.64922 15.5569C6.09569 17.0033 8.05682 17.817 10.1024 17.8195Z" fill="#D0D6DE" stroke="white"/>
</svg>
