<svg width="30" height="30" viewBox="0 0 30 30" fill="none" xmlns="http://www.w3.org/2000/svg">
<rect x="2" y="6" width="26" height="2" rx="1" fill="black"/>
<rect x="2" y="14" width="26" height="2" rx="1" fill="black"/>
<rect x="2" y="22" width="26" height="2" rx="1" fill="black"/>
<rect x="5" width="25" height="12" rx="6" fill="#FF0000"/>
<path d="M10.835 6.915H9.33L8.959 8H8L9.764 3.065H10.471L12.235 8H11.227L10.835 6.915ZM9.575 6.145H10.625L10.261 5.053L10.114 4.283H10.079L9.932 5.06L9.575 6.145ZM13.7923 6.551H13.5473V8H12.6373V4.5H13.5473V5.991L13.7643 5.893L14.5833 4.5H15.5563L14.7093 5.83L14.3523 6.096L14.7443 6.369L15.6893 8H14.6463L13.7923 6.551ZM19.4781 8.798H18.8131L18.7081 8H16.0621V4.5H16.9721V7.195H18.0571V4.5H18.9671V7.195H19.4781V8.798ZM22.0792 6.404L22.1142 5.907H22.0932L21.7922 6.418L20.5462 8H19.9722V4.5H20.8822V6.166L20.8402 6.642H20.8682L21.1552 6.145L22.4152 4.5H22.9892V8H22.0792V6.404ZM25.6347 6.677L25.2147 6.761L24.5427 8H23.4577L24.1367 6.901L24.4797 6.642C24.251 6.60467 24.062 6.49733 23.9127 6.32C23.7634 6.138 23.6887 5.91167 23.6887 5.641C23.6887 5.21633 23.8287 4.90367 24.1087 4.703C24.3934 4.50233 24.8274 4.402 25.4107 4.402C25.6347 4.402 25.8424 4.41367 26.0337 4.437C26.2297 4.46033 26.4 4.486 26.5447 4.514V8H25.6347V6.677ZM25.6347 6.201V5.235C25.5834 5.21167 25.5274 5.19533 25.4667 5.186C25.406 5.17667 25.3477 5.172 25.2917 5.172C25.0817 5.172 24.9184 5.21633 24.8017 5.305C24.685 5.39367 24.6267 5.52667 24.6267 5.704C24.6267 5.88133 24.6897 6.012 24.8157 6.096C24.9464 6.18 25.1354 6.21967 25.3827 6.215L25.6347 6.201Z" fill="white"/>
</svg>
