<svg width="24" height="25" viewBox="0 0 24 25" fill="none" xmlns="http://www.w3.org/2000/svg">
<path d="M12.71 16.79L12.56 16.67C12.5043 16.6322 12.4437 16.6019 12.38 16.58L12.2 16.5C12.0378 16.4661 11.8698 16.473 11.7109 16.5201C11.5521 16.5673 11.4074 16.6531 11.29 16.77C11.2017 16.8672 11.1306 16.9788 11.08 17.1C11.0043 17.2822 10.9842 17.4827 11.0223 17.6763C11.0603 17.8699 11.1547 18.0479 11.2937 18.188C11.4327 18.328 11.61 18.4238 11.8033 18.4633C11.9966 18.5028 12.1972 18.4843 12.38 18.41C12.4995 18.352 12.6105 18.278 12.71 18.19C12.8488 18.0494 12.9428 17.8708 12.9801 17.6768C13.0175 17.4828 12.9966 17.2821 12.92 17.1C12.8701 16.9844 12.7989 16.8792 12.71 16.79ZM16 2.5H8C7.20435 2.5 6.44129 2.81607 5.87868 3.37868C5.31607 3.94129 5 4.70435 5 5.5V19.5C5 20.2956 5.31607 21.0587 5.87868 21.6213C6.44129 22.1839 7.20435 22.5 8 22.5H16C16.7956 22.5 17.5587 22.1839 18.1213 21.6213C18.6839 21.0587 19 20.2956 19 19.5V5.5C19 4.70435 18.6839 3.94129 18.1213 3.37868C17.5587 2.81607 16.7956 2.5 16 2.5ZM17 19.5C17 19.7652 16.8946 20.0196 16.7071 20.2071C16.5196 20.3946 16.2652 20.5 16 20.5H8C7.73478 20.5 7.48043 20.3946 7.29289 20.2071C7.10536 20.0196 7 19.7652 7 19.5V5.5C7 5.23478 7.10536 4.98043 7.29289 4.79289C7.48043 4.60536 7.73478 4.5 8 4.5H16C16.2652 4.5 16.5196 4.60536 16.7071 4.79289C16.8946 4.98043 17 5.23478 17 5.5V19.5Z" fill="#2E3038"/>
</svg>
