<svg width="24" height="25" viewBox="0 0 24 25" fill="none" xmlns="http://www.w3.org/2000/svg">
<path d="M19 3.5H5C4.20435 3.5 3.44129 3.81607 2.87868 4.37868C2.31607 4.94129 2 5.70435 2 6.5V14.5C2 15.2956 2.31607 16.0587 2.87868 16.6213C3.44129 17.1839 4.20435 17.5 5 17.5H11V19.5H7C6.73478 19.5 6.48043 19.6054 6.29289 19.7929C6.10536 19.9804 6 20.2348 6 20.5C6 20.7652 6.10536 21.0196 6.29289 21.2071C6.48043 21.3946 6.73478 21.5 7 21.5H17C17.2652 21.5 17.5196 21.3946 17.7071 21.2071C17.8946 21.0196 18 20.7652 18 20.5C18 20.2348 17.8946 19.9804 17.7071 19.7929C17.5196 19.6054 17.2652 19.5 17 19.5H13V17.5H19C19.7956 17.5 20.5587 17.1839 21.1213 16.6213C21.6839 16.0587 22 15.2956 22 14.5V6.5C22 5.70435 21.6839 4.94129 21.1213 4.37868C20.5587 3.81607 19.7956 3.5 19 3.5ZM20 14.5C20 14.7652 19.8946 15.0196 19.7071 15.2071C19.5196 15.3946 19.2652 15.5 19 15.5H5C4.73478 15.5 4.48043 15.3946 4.29289 15.2071C4.10536 15.0196 4 14.7652 4 14.5V6.5C4 6.23478 4.10536 5.98043 4.29289 5.79289C4.48043 5.60536 4.73478 5.5 5 5.5H19C19.2652 5.5 19.5196 5.60536 19.7071 5.79289C19.8946 5.98043 20 6.23478 20 6.5V14.5Z" fill="#2E3038"/>
</svg>
