<svg width="20" height="20" viewBox="0 0 20 20" fill="none" xmlns="http://www.w3.org/2000/svg">
<path d="M14.6379 5.3902L3.66492 16.3903L3 18L4.60967 17.3351L15.6096 6.36198L14.6379 5.3902ZM16.8334 3.19502L16.358 3.67002L17.3298 4.6418L17.8052 4.1664C17.9299 4.04156 18 3.8723 18 3.69583C18 3.51935 17.9299 3.35009 17.8052 3.22526L17.7749 3.19502C17.7131 3.13319 17.6397 3.08414 17.559 3.05068C17.4782 3.01722 17.3916 3 17.3042 3C17.2168 3 17.1302 3.01722 17.0494 3.05068C16.9686 3.08414 16.8952 3.13319 16.8334 3.19502Z" stroke="#818181" stroke-width="2" stroke-linecap="round" stroke-linejoin="round"/>
</svg>
