<svg width="24" height="25" viewBox="0 0 24 25" fill="none" xmlns="http://www.w3.org/2000/svg">
<path d="M7.76116 11.256C8.35435 11.256 8.93421 11.0801 9.42743 10.7505C9.92064 10.421 10.3051 9.95254 10.5321 9.40451C10.7591 8.85648 10.8185 8.25344 10.7027 7.67166C10.587 7.08987 10.3014 6.55547 9.88191 6.13602C9.46247 5.71658 8.92806 5.43093 8.34628 5.31521C7.76449 5.19948 7.16145 5.25888 6.61342 5.48588C6.06539 5.71288 5.59698 6.0973 5.26743 6.59051C4.93787 7.08372 4.76197 7.66359 4.76197 8.25677C4.76284 9.05194 5.07911 9.81429 5.64138 10.3766C6.20364 10.9388 6.966 11.2551 7.76116 11.256ZM7.76116 7.25704C7.95889 7.25704 8.15218 7.31567 8.31659 7.42553C8.48099 7.53538 8.60913 7.69151 8.6848 7.87419C8.76046 8.05687 8.78026 8.25788 8.74169 8.45181C8.70311 8.64574 8.6079 8.82387 8.46808 8.96369C8.32827 9.1035 8.15013 9.19872 7.9562 9.23729C7.76227 9.27587 7.56126 9.25607 7.37858 9.1804C7.19591 9.10473 7.03977 8.9766 6.92992 8.81219C6.82007 8.64779 6.76143 8.4545 6.76143 8.25677C6.76161 7.99168 6.867 7.7375 7.05444 7.55005C7.24189 7.3626 7.49607 7.25722 7.76116 7.25704ZM16.2433 13.7397C15.6501 13.7397 15.0702 13.9156 14.577 14.2451C14.0838 14.5747 13.6994 15.0431 13.4724 15.5911C13.2454 16.1392 13.186 16.7422 13.3017 17.324C13.4174 17.9058 13.7031 18.4402 14.1225 18.8596C14.542 19.2791 15.0764 19.5647 15.6581 19.6804C16.2399 19.7962 16.843 19.7368 17.391 19.5098C17.939 19.2828 18.4074 18.8983 18.737 18.4051C19.0665 17.9119 19.2424 17.332 19.2424 16.7389C19.2416 15.9437 18.9253 15.1813 18.363 14.6191C17.8008 14.0568 17.0384 13.7405 16.2433 13.7397ZM16.2433 17.7386C16.0455 17.7386 15.8522 17.68 15.6878 17.5701C15.5234 17.4603 15.3953 17.3041 15.3196 17.1214C15.244 16.9388 15.2242 16.7378 15.2627 16.5438C15.3013 16.3499 15.3965 16.1718 15.5363 16.0319C15.6762 15.8921 15.8543 15.7969 16.0482 15.7583C16.2421 15.7198 16.4432 15.7396 16.6258 15.8152C16.8085 15.8909 16.9647 16.019 17.0745 16.1834C17.1844 16.3478 17.243 16.5411 17.243 16.7389C17.2428 17.004 17.1374 17.2581 16.95 17.4456C16.7625 17.633 16.5083 17.7384 16.2433 17.7386ZM19.7071 4.7929C19.6143 4.70004 19.5041 4.62638 19.3829 4.57612C19.2616 4.52587 19.1316 4.5 19.0003 4.5C18.869 4.5 18.739 4.52587 18.6177 4.57612C18.4965 4.62638 18.3863 4.70004 18.2935 4.7929L4.29723 18.7891C4.20345 18.8817 4.12891 18.992 4.0779 19.1135C4.02689 19.235 4.00042 19.3655 4 19.4973C3.99959 19.6291 4.02525 19.7596 4.0755 19.8815C4.12575 20.0033 4.1996 20.114 4.2928 20.2072C4.386 20.3004 4.49671 20.3743 4.61856 20.4245C4.7404 20.4748 4.87099 20.5004 5.00279 20.5C5.13459 20.4996 5.265 20.4731 5.38653 20.4221C5.50806 20.3711 5.6183 20.2965 5.71091 20.2027L19.7071 6.20651C19.8 6.11371 19.8736 6.00352 19.9239 5.88224C19.9741 5.76097 20 5.63098 20 5.4997C20 5.36843 19.9741 5.23844 19.9239 5.11716C19.8736 4.99589 19.8 4.8857 19.7071 4.7929Z" fill="#2E3038"/>
</svg>
