<svg width="28" height="24" viewBox="0 0 28 24" fill="none" xmlns="http://www.w3.org/2000/svg">
<path d="M27.9749 12.6226C27.9671 12.5799 27.9711 12.5378 27.9556 12.4957L23.8834 1.5104C23.8818 1.50673 23.8789 1.50359 23.8773 1.49993L25.4889 1.50019C25.9122 1.50019 26.2555 1.16483 26.2555 0.750228C26.2555 0.335346 25.9119 0.000261591 25.4889 0.000261591L2.49156 0C2.06833 0 1.72505 0.335359 1.72505 0.749966C1.72505 1.16485 2.06861 1.49993 2.49156 1.49993H3.65218C3.64683 1.51406 3.63533 1.52321 3.63079 1.53734L0.036897 12.5226C0.0245982 12.56 0.0299449 12.5985 0.0237952 12.6359C0.016844 12.6749 0 12.7102 0 12.7507C0 12.7725 0.00294098 12.7934 0.00294098 12.8154V12.8206C0.0411735 15.2701 2.08646 17.2511 4.59865 17.2511C7.11988 17.2511 9.17055 15.2568 9.19594 12.796V12.784C9.19594 12.7727 9.19755 12.7623 9.19755 12.751C9.19755 12.7045 9.1791 12.6655 9.17081 12.622C9.16306 12.5794 9.16707 12.5373 9.15156 12.4952L5.07938 1.50988C5.07778 1.50622 5.07483 1.50308 5.07323 1.49942L13.2236 1.49916V22.5001H10.181C9.75781 22.5001 9.41454 22.8354 9.41454 23.25C9.41454 23.6649 9.75809 24 10.181 24H17.7989C18.2222 24 18.5654 23.6646 18.5654 23.25C18.5654 22.8352 18.2219 22.5001 17.7989 22.5001L14.7564 22.4998V1.49889H22.4543C22.449 1.51302 22.4375 1.52218 22.4329 1.5363L18.8393 12.5216C18.827 12.559 18.8324 12.5975 18.8262 12.6349C18.8193 12.6738 18.8024 12.7092 18.8024 12.7497C18.8024 12.7714 18.8054 12.7923 18.8054 12.8143V12.8195C18.8436 15.2691 20.8889 17.2501 23.4011 17.2501C25.9223 17.2501 27.973 15.2557 27.9984 12.795V12.7829C27.9984 12.7717 28 12.7612 28 12.75C28.0008 12.705 27.9823 12.6652 27.9746 12.6223L27.9749 12.6226ZM23.2083 4.08759L26.1413 12.0011H20.6189L23.2083 4.08759ZM7.33943 12.0011H1.81704L4.40644 4.08759L7.33943 12.0011ZM4.5998 15.7513C3.17553 15.7513 1.98501 14.792 1.64224 13.501H7.55708C7.21459 14.7912 6.02406 15.7513 4.5998 15.7513ZM23.4015 15.7513C21.9773 15.7513 20.7867 14.792 20.444 13.501H26.3588C26.0163 14.7912 24.8265 15.7513 23.4015 15.7513Z" fill="#323232"/>
</svg>
