<svg width="24" height="25" viewBox="0 0 24 25" fill="#2E3038" xmlns="http://www.w3.org/2000/svg">
<path d="M19 2.5H5C4.20435 2.5 3.44129 2.81607 2.87868 3.37868C2.31607 3.94129 2 4.70435 2 5.5V19.5C2 20.2956 2.31607 21.0587 2.87868 21.6213C3.44129 22.1839 4.20435 22.5 5 22.5H19C19.7956 22.5 20.5587 22.1839 21.1213 21.6213C21.6839 21.0587 22 20.2956 22 19.5V5.5C22 4.70435 21.6839 3.94129 21.1213 3.37868C20.5587 2.81607 19.7956 2.5 19 2.5ZM20 19.5C20 19.7652 19.8946 20.0196 19.7071 20.2071C19.5196 20.3946 19.2652 20.5 19 20.5H5C4.73478 20.5 4.48043 20.3946 4.29289 20.2071C4.10536 20.0196 4 19.7652 4 19.5V5.5C4 5.23478 4.10536 4.98043 4.29289 4.79289C4.48043 4.60536 4.73478 4.5 5 4.5H19C19.2652 4.5 19.5196 4.60536 19.7071 4.79289C19.8946 4.98043 20 5.23478 20 5.5V19.5Z" fill="inherit"/>
<circle cx="12" cy="13.5" r="5" stroke="inherit" stroke-width="2"/>
<circle cx="14.5" cy="6" r="0.5" fill="inherit"/>
<circle cx="16.5" cy="6" r="0.5" fill="inherit"/>
<circle cx="18.5" cy="6" r="0.5" fill="inherit"/>
<rect x="5" y="5.5" width="6" height="1" rx="0.5" fill="inherit"/>
</svg>
