<svg width="27" height="28" viewBox="0 0 27 28" fill="none" xmlns="http://www.w3.org/2000/svg">
<path d="M15.8701 15L22.5041 8.366C22.8189 8.05171 22.996 7.62522 22.9964 7.18035C22.9968 6.73548 22.8205 6.30867 22.5062 5.99382C22.1919 5.67897 21.7654 5.50187 21.3205 5.50148C20.8757 5.50109 20.4488 5.67744 20.134 5.99173L13.5 12.6257L6.866 5.99173C6.55115 5.67688 6.12413 5.5 5.67886 5.5C5.2336 5.5 4.80658 5.67688 4.49173 5.99173C4.17688 6.30658 4 6.7336 4 7.17886C4 7.62413 4.17688 8.05115 4.49173 8.366L11.1257 15L4.49173 21.634C4.17688 21.9488 4 22.3759 4 22.8211C4 23.2664 4.17688 23.6934 4.49173 24.0083C4.80658 24.3231 5.2336 24.5 5.67886 24.5C6.12413 24.5 6.55115 24.3231 6.866 24.0083L13.5 17.3743L20.134 24.0083C20.4488 24.3231 20.8759 24.5 21.3211 24.5C21.7664 24.5 22.1934 24.3231 22.5083 24.0083C22.8231 23.6934 23 23.2664 23 22.8211C23 22.3759 22.8231 21.9488 22.5083 21.634L15.8701 15Z" fill="white"/>
</svg>
