<svg width="45" height="14" viewBox="0 0 45 14" fill="none" xmlns="http://www.w3.org/2000/svg">
<path fill-rule="evenodd" clip-rule="evenodd" d="M37.8573 14C31.1753 13.5504 28.948 5.41813 33.9498 1.24981C36.0211 -0.670858 39.1079 0.227982 41.6475 0.105362C42.8981 0.105362 43.8748 3.70183 43.0932 4.31492C41.4521 4.27405 40.3187 1.53592 38.365 2.06727C34.3011 2.06727 34.6916 12.9785 39.2639 11.9976C39.5765 11.9571 40.3187 11.7118 40.3187 11.344L40.28 8.15625C39.5765 7.87051 38.9903 6.93043 39.6547 6.48119L44.2266 6.3177C45.7895 6.52207 44.5392 7.70665 44.3047 8.15625C44.3832 8.93284 44.266 9.79081 44.3832 10.5678C45.1255 10.9353 44.7737 11.7118 44.3047 11.998C43.0154 13.3464 39.6159 14 37.8573 14ZM17.5381 13.8774C16.4829 13.8774 16.522 12.5289 17.2646 12.1611C18.0462 11.9158 17.5381 2.96611 17.46 1.86291C16.991 1.65854 16.2097 1.12719 16.7956 0.350969L27.7759 0.310096C28.4793 0.841446 30.9802 3.62045 28.6353 3.62045C27.5414 3.17084 26.7206 2.14902 25.3137 2.27164C24.1416 2.23076 23.0473 2.23076 21.9921 2.35338V5.9086L26.3689 5.94948C26.6816 5.66336 27.6192 5.05027 28.166 5.17289C29.1039 5.66337 27.4238 8.93248 26.095 8.93248C25.5088 8.85073 25.7045 8.31938 25.3133 8.07414H21.9917L22.0308 11.7115C24.4145 12.1198 26.9154 11.7115 28.9082 10.2809C30.7447 10.8123 28.361 13.7548 27.5403 13.9179L17.5381 13.8774ZM0.774427 13.8774C-0.944828 13.1825 0.6181 12.3654 1.43882 11.9976L5.46356 3.17048C5.46356 1.74029 2.68945 1.24981 4.40835 0.187109H9.09748L14.9587 12.4063C16.3653 13.2643 15.9354 13.7548 14.451 13.7139L10.2699 13.7548L8.82426 11.3841H4.33018L3.97845 12.2428C4.33018 12.4063 4.76009 12.8559 4.40835 13.3464C4.40835 14.0409 1.28249 13.8774 0.774427 13.8774ZM5.18999 9.05509L6.47969 6.15384L7.88629 9.17771L5.18999 9.05509Z" fill="#CC2229"/>
</svg>
