<svg width="61" height="27" viewBox="0 0 61 27" fill="none" xmlns="http://www.w3.org/2000/svg">
<path fill-rule="evenodd" clip-rule="evenodd" d="M53.7827 21.3573L54.3727 20.9302L54.9331 20.4725L55.4642 19.97L55.9729 19.445L56.4595 18.8824L56.917 18.2975L57.3447 17.6901L57.7433 17.0602L58.1116 16.4149L58.451 15.7626L58.7534 15.1026L59.0334 14.4275L59.2769 13.7601L59.4831 13.0927L59.6531 12.425L59.7931 11.765L59.8966 11.1127L59.9704 10.4825L60 9.86769L59.9852 9.27502L59.9407 8.70513L59.8521 8.15736L59.719 7.64744L59.5497 7.16766L59.3359 6.73246L59.0779 6.3351L58.7827 5.98265L58.4361 5.68246L58.0457 5.4275L57.6102 5.23251L57.1309 5.09012L56.6001 5H24.0913L23.4791 5.03015L22.8667 5.10487L22.2622 5.23989L21.6649 5.4352L21.0748 5.67509L20.4921 5.97495L19.9244 6.31265L19.3637 6.68756L18.8106 7.11506L18.2795 7.57271L17.7636 8.06019L17.2546 8.58518L16.7752 9.13263L16.3104 9.70253L15.8679 10.3026L15.4476 10.91L15.0568 11.5402L14.6806 12.1774L14.3413 12.8301L14.0244 13.4824L13.7443 14.135L13.486 14.7877L13.2647 15.44L13.0805 16.0852L12.9253 16.7151L12.8149 17.3376L12.7412 17.9453L12.7043 18.53V19.0999L12.756 19.6326L12.8443 20.1425L12.9843 20.6226L13.1688 21.0652L13.4047 21.4776L13.685 21.8451L14.0171 22.1601L14.4078 22.4375L14.8427 22.6626L15.3444 22.8275L15.8903 22.925L48.3254 22.9323L49.0703 22.9403L49.8076 22.8878L50.5231 22.7675L51.216 22.5876L51.8874 22.3551L52.5433 22.0773L53.1778 21.7403L53.7827 21.3573ZM11.9815 19.2051L11.8856 19.0024L11.7676 18.8526L11.5463 18.4549L10.101 16.9175L10.3075 16.6327L10.3589 14.0225V13.7899L10.3369 13.5953L10.2703 13.4375L10.1893 13.2653L10.0344 13.0776L9.00194 11.9L8.97986 11.8853L8.95022 11.8776L8.86192 11.8474H8.7733L8.71433 11.8776L8.67743 11.9074L8.63328 11.9751L8.55949 12.0424L8.46362 12.0799L8.375 12.0876L8.34567 12.0799L8.33085 12.0652L8.31603 12.0273L8.30152 12.0126L8.29395 11.9901V11.96L8.27945 11.8853L8.26462 11.84L8.2498 11.7874L8.22741 11.765L8.19808 11.7502L8.16876 11.7275H8.13186L8.08014 11.7425L7.99909 11.765L7.9398 11.7874L7.85876 11.8253L7.82943 11.7951L7.80735 11.7724L7.76289 11.7425L7.74081 11.7201H7.71874L7.65251 11.7124L7.57872 11.7201L7.54182 11.7425L7.51974 11.7724L7.49767 11.8551L7.47528 11.9452L7.42388 12.0726L7.35733 12.0799L7.27629 12.1027L7.17316 11.9901L7.0035 11.8474L6.90732 11.7874L6.82627 11.7576H6.73797L5.97827 11.9526L5.8824 11.9975L5.75688 12.0726L5.63169 12.17L5.55064 12.2826L5.4841 12.4103L5.43238 12.5302L5.4103 12.5825L5.39548 12.6351L1.13277 8.8177L1.10344 8.91519L1 9.53768L1.06654 10.1451L1.35415 10.9026L1.73763 11.495L2.26112 12.1101L2.77768 12.6052L3.81742 13.4452L3.85432 13.4526H3.92055L3.95019 13.4375L4.00191 13.3775L4.01641 13.3477V13.3102L4.00916 13.2502L3.97226 13.205L3.92055 13.1674L3.45602 12.7775L3.0798 12.4475L2.77011 12.0424L2.60045 11.7502L5.02683 13.9849L4.67299 15.455L4.65817 15.575L4.67299 15.6949L4.71714 15.7928L4.77612 15.8749L4.85716 15.9653L5.76445 16.5422L5.7941 18.5826H6.22898L6.25105 19.3699L6.6052 19.4001L6.64935 21.8301L6.2807 22.1527L5.96345 22.4526L5.90447 22.5424L5.87483 22.6475L5.8824 22.7527L5.92686 22.8576L6.00034 22.9474L6.10378 23L6.39107 22.9926L7.04008 22.7226L7.72631 22.3849L7.82943 22.4301L8.21291 22.5953L8.7733 22.8352L9.03883 22.8801L9.26747 22.805L9.4078 22.6475L9.42262 22.5574L9.39298 22.4526L9.01676 22.0626L8.61846 21.7024L8.7364 19.4074H9.01676L9.03883 18.59H9.55508L9.5699 17.7802L11.0893 18.9052L11.1776 18.9203L11.5169 19.0476L11.7087 19.1676L11.8635 19.2349L12.0035 19.265L11.9815 19.2051Z" fill="black"/>
<path fill-rule="evenodd" clip-rule="evenodd" d="M5.1643 8.9682L5.36286 9.41442L5.48616 9.63402L5.62322 9.8263L5.69849 9.9223L5.86279 10.1008L6.23942 10.4302L6.65734 10.6844L7.11627 10.8697L7.59569 10.9727L7.99985 10.9932L8.08889 11L8.69864 10.9175L9.17103 10.7666L9.60272 10.54L9.99985 10.2449L10.3355 9.88091L10.6163 9.47607L10.8216 9.0228L10.9725 8.33643L11 8L10.9587 7.51267L10.8354 7.0321L10.6439 6.57912L10.3697 6.16724L10.0409 5.79646L9.65046 5.49437L9.21907 5.25394L8.69864 5.08249L8.21218 5H7.99985L7.71929 5.00675L7.23283 5.08925L6.7742 5.25394L6.33577 5.49437L5.95212 5.79646L5.62322 6.16019L5.34939 6.57912L5.15756 7.0321L5.04129 7.51267L5 8L5.04129 8.48733L5.1643 8.9682ZM6.07512 6.86065L6.17792 6.57912L6.34251 6.34573L6.57534 6.16019L6.8562 6.0504L7.1438 6.0228L7.4314 6.05715L7.73276 6.20834L7.94509 6.40738L7.99985 6.49662L8.10265 6.66161L8.17821 6.94285L8.19168 7.10784L8.13018 7.45777L8.00015 7.69792L7.98638 7.72551L7.78108 7.93835L7.52775 8.08954L7.19212 8.17203L6.89779 8.14444L6.61693 8.04139L6.49363 7.96595L6.43857 7.9178L6.32904 7.81476L6.24001 7.69792L6.10997 7.44398L6.04818 7.14864L6.07512 6.86065Z" fill="black"/>
<path fill-rule="evenodd" clip-rule="evenodd" d="M6.839 20.2434L6.84662 20.8766L7.11369 20.884H7.3887L7.396 20.2649L7.11369 20.2505L6.839 20.2434ZM7.31439 18.4865L7.32169 18.0256H6.45284V18.4794L7.11369 18.4865H7.31439ZM7.36647 21.2655L7.35154 21.2439L7.31439 21.2221L7.23277 21.1934L7.12131 21.1793H7.11369L7.02477 21.1863L6.95046 21.2221L6.86853 21.2944L6.80184 21.3877L6.75738 21.4456L6.73515 21.4671L6.72023 21.4887L6.7053 21.5028L6.64592 21.5247L6.60146 21.5388L6.54938 21.5607L6.4973 21.5967L6.46015 21.6327L6.40838 21.6614L6.33407 21.6974L6.23754 21.7263L6.12607 21.7765L6.04446 21.8485L6.01461 21.8704L6.0073 21.9064L6 21.935L6.0073 21.9495L6.01461 21.9637L6.02953 21.9781L6.04446 21.9926H6.05176L6.12607 22L6.29692 21.9637L6.50492 21.9132L6.61607 21.8485L6.74246 21.7549L6.86853 21.6829L6.97269 21.6401L7.09908 21.5896L7.11369 21.5822L7.18069 21.5533L7.24738 21.5102L7.29184 21.4745L7.35154 21.4311L7.36647 21.4021L7.3887 21.3806V21.352L7.396 21.3159L7.3887 21.2944L7.36647 21.2655ZM8.15338 12.2878L8.26485 12.1081L8.15338 12.0646L8.03461 12.0215L8.04224 12.4535L8.15338 12.2878ZM7.57415 12.439L7.55954 12L7.47761 12.0357L7.38107 12.0791L7.47761 12.2589L7.57415 12.439ZM8.97047 21.6903L8.95554 21.6684L8.93331 21.6543L8.91108 21.6472L8.83677 21.6327L8.77739 21.6257L8.72531 21.6038L8.66593 21.5678L8.60654 21.5318L8.49508 21.4745L8.39124 21.4382L8.33185 21.4237L8.30962 21.4095L8.2947 21.4021L8.27215 21.3806L8.25024 21.323L8.23531 21.2799V21.2581L8.22769 21.2439L8.19085 21.2079L8.15338 21.1863L8.13846 21.1793L8.03461 21.1719H7.90092L7.79708 21.1793H7.75992L7.745 21.1863L7.71547 21.2221L7.70054 21.2655L7.68561 21.323V21.3806L7.70784 21.4021L7.76723 21.4887L7.84154 21.5388L7.85646 21.5607L8.01238 21.6183L8.15338 21.6684L8.6437 21.8559L8.70308 21.863L8.82185 21.8704L8.89616 21.8559L8.96285 21.827L8.98507 21.7697L9 21.7334L8.98507 21.7048L8.97047 21.6903ZM8.01238 20.9127L8.15338 20.9201H8.24262L8.26485 20.2717H8.15338L8.01238 20.2649L7.67831 20.2576L7.67069 20.8982L8.01238 20.9127Z" fill="#F3CC3E"/>
<path fill-rule="evenodd" clip-rule="evenodd" d="M10.0848 13.6259L10.0112 13.4795L9.91603 13.34L8.98253 12.3281L8.3359 13.208L8.19639 13.3989L7.9466 13.736L7.66728 13.2816L7.3072 12.7022L7.13093 12.4162L7.09417 12.3429L7.03541 12.2475L6.93989 12.1742L6.91067 12.1594H6.80761L6.03593 12.3648L5.92596 12.4601L5.84521 12.6141L5.80845 12.6803L5.02199 15.3712L5.00754 15.4226L5 15.5251L5.02199 15.6208L5.05907 15.6866L5.10306 15.738L5.13951 15.76L5.85243 16.1632V15.4006L5.65417 15.2175L6.04347 13.6629L6.20529 13.7288L6.17575 18.1358H6.16821L7.3072 18.1502L7.66728 18.1577L8.19639 18.1649H8.3359L9.27663 18.1797L9.34261 14.6748L9.66593 14.66L9.6367 16.9991L10.0628 16.5373L10.1435 14.2054V13.9411L10.1363 13.7655L10.0848 13.6259ZM7.02064 19.2796L7.04264 20.3432L7.3072 20.3501H7.58653L7.59375 19.2796H7.02064ZM7.49823 19.8148L7.49101 19.9911L7.30751 19.9839H7.11648V19.8079H7.30751L7.49823 19.8148ZM58.9925 9.06498L58.9557 8.58117L58.8746 8.13404L58.7574 7.71608L58.6104 7.33448L58.4194 6.99741L58.1919 6.70393L57.9198 6.45465L57.6112 6.2568L57.2584 6.10284L56.8618 6.01474L56.4059 6L24.0166 6.02195L23.8035 6.03668L22.8996 6.10284L21.9004 6.35212L20.9744 6.77009L20.1515 7.30532L19.0125 8.25852L18.0574 9.25562L16.8301 10.803L16.1542 11.7782L15.3458 13.2227L14.817 14.3521L14.3906 15.4151L13.9353 16.9552L13.7148 18.0329L13.6265 18.6854L13.6192 19.5141L13.722 20.0644L13.8763 20.5188L14.1923 21.0248L14.6479 21.472L15.0372 21.714L15.4708 21.8827L15.9192 21.9561H16.147L16.3305 21.9486L48.3158 21.9561L48.9772 22L49.5946 21.9561L50.2114 21.8608L50.8068 21.6993L51.3947 21.4939L51.9606 21.2299L52.5117 20.9292L53.048 20.5849L53.5696 20.1961L54.0771 19.7709L54.5543 19.3163L55.0172 18.8325L55.4583 18.3189L55.8768 17.7764L56.274 17.2189L56.6485 16.647L56.9938 16.0607L57.3171 15.4593L57.6184 14.8507L57.8905 14.2421L58.1328 13.6335L58.3458 13.0248L58.5372 12.4162L58.6911 11.8221L58.8165 11.2354L58.9117 10.6638L58.9705 10.1063L59 9.57106L58.9925 9.06498ZM8.19639 20.372H8.3359L8.45341 20.3792L8.51248 19.2868H7.88785L7.85863 20.3573L8.19639 20.372ZM8.01981 19.8296H8.3802V19.9983H8.19639L8.01981 19.9911V19.8296ZM8.3359 18.9789L8.74028 18.9861L8.7695 18.5243L8.3359 18.5098H8.19639L7.86585 18.5023L7.85831 18.9789H8.3359Z" fill="#F3CC3E"/>
<path fill-rule="evenodd" clip-rule="evenodd" d="M31.4347 15.3037L31.4198 14.8521L31.3004 14.3622L31.0399 13.8572L30.7196 13.4822L30.3551 13.1916L30.1688 13.0843L29.9753 12.9848L30.273 12.9082L30.571 12.8162L31.2781 12.579L31.9559 12.2498L32.4249 11.9209L32.4994 11.8672L32.9308 11.4235L33.266 10.9031L33.4969 10.352L33.6013 9.75513L33.5564 9.17361L33.3854 8.68371L33.14 8.29363L32.8124 7.97979L32.4249 7.76544L32.351 7.7193L31.8292 7.55862L31.3752 7.5128H31.1743L26.7886 7.48204L23.6615 7.46666L21.5694 7.45128L16 18.6482H26.6097L26.7883 18.6407H26.9297L27.6371 18.5945L28.3445 18.4568L28.9775 18.2427L29.5658 17.9443L30.0794 17.5768L30.5114 17.1713L30.869 16.7197L31.1593 16.2069L31.3453 15.7402L31.4347 15.3037ZM26.461 14.6914L26.312 15.074L26.0516 15.4798L25.6867 15.8469L25.225 16.1608L24.7411 16.3676L24.2422 16.4671L23.7283 16.49L23.6612 16.4975L23.4899 16.5047H20.8094L22.9241 13.4819H25.5001L25.9022 13.5434L26.2448 13.7195L26.446 13.995L26.5056 14.3242L26.461 14.6914ZM29.0892 10.2679L28.9253 10.5893L28.5976 10.9797L28.151 11.2628L27.6969 11.3776L27.2277 11.4084H24.4431L25.9767 9.24266H28.1882L28.5604 9.27309L28.8358 9.41086L29.0517 9.65565L29.1262 9.97701L29.0892 10.2679ZM40.5999 8.40064L40.6072 8.16338L40.5999 8.13262L40.5254 7.85707L40.3019 7.52818L39.9966 7.32136L39.5353 7.16853L39.1105 7.15315L38.5448 7.26016L38.1879 7.4287L37.8377 7.69639L37.5995 8.01808L37.4279 8.41602L37.4136 8.72953L37.4801 9.04336L37.5549 9.18899L37.6294 9.31138L37.689 9.37258L37.9271 9.56402L38.4782 9.74761L39.0144 9.77051L39.5801 9.65565L39.9227 9.48744L40.2131 9.25018L40.4662 8.90559L40.5999 8.52303V8.40064ZM32.4246 17.0332L31.2482 19H36.6313L39.7139 10.352H36.4304L32.4246 17.0332ZM51.6642 14.783L51.2917 15.0893L50.4878 15.6401L49.6015 16.13L48.7004 16.4825L47.8593 16.666L47.0777 16.6811L46.3779 16.5587L45.8787 16.291L45.581 15.9693L45.3801 15.5256L45.283 15.074V14.6073L45.3874 14.0258L45.6033 13.2911L45.9009 12.6022L46.3183 11.8675L46.8768 11.0946L47.5396 10.4057L48.2614 9.86247L48.9762 9.49497L49.5792 9.31891L50.1449 9.31138L50.6588 9.46421L51.0163 9.70932L51.2395 10.0002L51.3888 10.3367L51.4411 10.6505L51.3962 11.0409L51.2618 11.6378L51.1657 11.9592L51.0686 12.2426H53.3692L58 7.35998H53.1536L52.8257 7.99517L52.4532 7.77297L52.066 7.574L51.6642 7.40579L51.2468 7.26802L50.8154 7.16068L50.3758 7.08443L49.9294 7.03076L49.4681 7H48.9985L48.5295 7.03076L48.0608 7.08443L47.5839 7.16068L47.1149 7.26016L46.6459 7.38256L46.184 7.52818L45.73 7.69639L45.2763 7.88783L44.8366 8.09466L44.4125 8.32406L43.9951 8.57637L43.5933 8.84439L43.2135 9.12779L42.856 9.43377L42.5134 9.75513L42.1854 10.0843L41.8957 10.4365L41.6203 10.8036L41.3742 11.1865L41.1657 11.5691L40.9797 11.9824L40.8307 12.3954L40.712 12.8241L40.6372 13.2603L40.5999 13.62L40.5926 13.7041V14.1635L40.5999 14.209L40.7416 15.0815L40.9947 15.9003L41.3449 16.6124L41.7763 17.2247L42.2826 17.7375L42.8633 18.1658L43.4965 18.5026L44.1817 18.7477L44.9111 18.9084L45.6778 18.9846H46.467L47.2786 18.9005L48.0974 18.7398L48.924 18.5104L49.7435 18.2117L50.5474 17.8445L51.3366 17.4004L52.0883 16.9033L52.8034 16.3368L53.4879 15.7016L52.0368 14.4695L51.6642 14.783Z" fill="black"/>
</svg>
