<svg width="60" height="30" viewBox="0 0 60 30" fill="none" xmlns="http://www.w3.org/2000/svg">
<path d="M16.5 27C23.4032 27 29 21.6273 29 15C29 8.37273 23.4036 3 16.5 3C9.59645 3 4 8.37273 4 15C4 21.6273 9.59645 27 16.5 27Z" fill="#A70B52"/>
<path d="M19 19.1019H16.8116V10H16V20H16.8116V19.9941H19V19.1019Z" fill="white"/>
<path d="M26.038 15.3826H19.5698V14.4652H26.9854C26.9952 14.6425 27 14.8202 27 15C27 20.523 22.2989 25 16.5 25C10.7011 25 6 20.523 6 15C6 9.47697 10.7011 5 16.5003 5C16.6532 5 16.8057 5.00303 16.9573 5.00938L16.9561 5.91985C16.8043 5.91317 16.6523 5.90985 16.5003 5.90986C11.229 5.90986 6.95535 9.97972 6.95535 15C6.95535 20.0206 11.2287 24.0901 16.5003 24.0901C21.628 24.0901 25.8111 20.2394 26.0354 15.4083L26.038 15.3826Z" fill="white"/>
<path d="M12.5 13C12.8978 13 13.2794 12.842 13.5607 12.5607C13.842 12.2794 14 11.8978 14 11.5C14 11.1022 13.842 10.7206 13.5607 10.4393C13.2794 10.158 12.8978 10 12.5 10C12.1022 10 11.7206 10.158 11.4393 10.4393C11.158 10.7206 11 11.1022 11 11.5C11 11.8978 11.158 12.2794 11.4393 12.5607C11.7206 12.842 12.1022 13 12.5 13Z" fill="white"/>
<path d="M35 20.7002H43.8127V18.2116H38.2356V9.30037H35V20.7002ZM54.4603 10.103C53.45 9.37108 52.1491 9 50.5966 9C48.7532 9 47.2129 9.52945 46.142 10.5299C45.0242 11.5757 44.4324 13.1161 44.4324 14.9847C44.4324 16.9809 45.058 18.6654 46.1939 19.7266C47.0858 20.5603 48.2739 21 49.6335 21C52.6182 21 53.3047 19.3272 53.3047 19.3272V20.6996H56V14.2615H50.6348V16.2761H53.1041C53.1041 16.2761 53.1279 18.8127 50.5791 18.8127C49.9317 18.8127 49.3548 18.5929 48.911 18.178C48.2195 17.532 47.8539 16.4433 47.8539 15.032C47.8539 12.6945 48.8476 11.299 50.5113 11.299C51.5507 11.299 52.3319 11.8956 52.5322 12.7999H55.9647C55.7869 11.486 55.4013 10.8011 54.4603 10.103Z" fill="#808183"/>
</svg>
