<svg width="53" height="17" viewBox="0 0 53 17" fill="none" xmlns="http://www.w3.org/2000/svg">
<g clip-path="url(#clip0_417_440)">
<path d="M52.9663 4.04737C52.2457 0.0495297 39.8124 -1.19807 25.1948 1.26066C19.0559 2.29379 13.5128 3.81759 9.1961 5.5319C9.85919 5.54592 10.351 5.69282 10.6498 5.98075C10.8834 6.2067 11.0014 6.51682 11.0014 6.90319V7.29976H9.56804V6.9496C9.56804 6.65785 9.38695 6.47703 9.06623 6.47703C8.79671 6.47703 8.63068 6.5946 8.57709 6.82617C8.55913 6.91771 8.56111 7.01186 8.5829 7.10262C8.73626 7.70832 10.8647 8.08449 11.0962 9.20228C11.1265 9.34612 11.1677 9.65394 11.1028 10.0944C10.97 10.9959 10.1501 11.3438 9.10635 11.3438C7.6495 11.3438 7.05768 10.6771 7.05768 9.75799L7.05873 9.32316H8.5953L8.5961 9.86484C8.5961 10.1693 8.82522 10.3374 9.13724 10.3374C9.43288 10.3374 9.60552 10.2224 9.66518 9.98726C9.69289 9.87913 9.70504 9.71973 9.65462 9.59783C9.37032 8.90874 7.38289 8.58689 7.13819 7.47267C7.08355 7.22223 7.07906 7.00903 7.12446 6.73946C7.14776 6.60583 7.1906 6.47609 7.2517 6.35411C2.46354 8.51752 -0.337454 10.898 0.0326329 12.9532C0.754064 16.9516 13.1871 18.1979 27.8044 15.7392C34.23 14.6586 40.0067 13.041 44.4031 11.2282C44.3395 11.2313 44.2778 11.2379 44.2118 11.2379C43.2113 11.2379 42.318 10.8758 42.2254 9.8878C42.209 9.708 42.2061 9.63277 42.2056 9.53025L42.2061 7.25895C42.2061 7.16102 42.218 6.98913 42.2294 6.90038C42.3479 5.94555 43.1292 5.55179 44.2123 5.55179C45.0504 5.55179 46.078 5.78412 46.191 6.90115C46.2061 7.04141 46.2045 7.19112 46.2042 7.24034V7.45482H44.7566V7.13476C44.7566 7.12787 44.7545 7.00826 44.7387 6.93354C44.7149 6.81954 44.6143 6.55533 44.202 6.55533C43.7947 6.55533 43.6891 6.82005 43.6627 6.93379C43.6477 6.99627 43.6405 7.08604 43.6405 7.18551V9.65394C43.6392 9.73962 43.6437 9.8067 43.6527 9.85592C43.6598 9.89468 43.7329 10.2349 44.207 10.2349C44.6777 10.2349 44.7505 9.89468 44.7571 9.85592C44.7695 9.7891 44.7711 9.70953 44.7706 9.65394V8.8891H44.2009V8.06536H46.2153V9.53076C46.2148 9.63047 46.2132 9.70418 46.1958 9.8878C46.1715 10.1469 46.087 10.3662 45.9545 10.5537C50.617 8.41475 53.3317 6.07281 52.9663 4.04737ZM15.0634 11.1329L14.3301 6.31892H14.3037L13.5516 11.1329H12.0061L13.0456 5.69639H15.5673L16.6005 11.1329H15.0634ZM22.4973 11.1329L22.4633 6.412H22.4384L21.5291 11.1329H20.0785L19.1737 6.412H19.1478L19.1148 11.1329H17.6775L17.8021 5.69639H20.1139L20.787 9.73478H20.82L21.495 5.69639H23.8058L23.9299 11.1329H22.4973ZM29.2658 10.0793C29.1111 11.1323 28.0433 11.3165 27.2886 11.3165C26.0356 11.3165 25.2605 10.799 25.2605 9.746L25.2613 9.31653H26.7794L26.7805 9.85158C26.7805 10.1421 26.9925 10.3198 27.3198 10.3198C27.6117 10.3198 27.7828 10.2066 27.8422 9.974C27.8696 9.86561 27.881 9.70749 27.8324 9.58814C27.5526 8.91206 25.5807 8.58077 25.3411 7.48389C25.2862 7.23524 25.2822 7.02407 25.3273 6.75731C25.4942 5.76295 26.4819 5.55638 27.277 5.55638C27.9882 5.55638 28.5058 5.70634 28.8162 6.00625C29.0477 6.23017 29.1649 6.53748 29.1649 6.91976V7.312H27.7453V6.96593C27.7453 6.66958 27.555 6.4982 27.249 6.4982C26.9777 6.4982 26.8135 6.61475 26.7596 6.84402C26.7422 6.93462 26.7445 7.02774 26.7665 7.11741C26.9185 7.7203 29.0282 8.08882 29.2592 9.19616C29.289 9.33744 29.3299 9.64067 29.2658 10.0793ZM34.5235 9.58533C34.5256 9.68734 34.5153 9.89111 34.5095 9.94339C34.423 10.8391 33.7599 11.2943 32.5438 11.2943C31.3229 11.2943 30.6593 10.8391 30.5732 9.94339C30.5635 9.82462 30.5588 9.7055 30.5592 9.58635V5.69511H32.0116V9.70902C32.01 9.79879 32.0148 9.8651 32.024 9.91126C32.0419 10.0005 32.1338 10.2902 32.5438 10.2902C32.9524 10.2902 33.0442 10.0003 33.0635 9.91228C33.0717 9.86485 33.0767 9.79522 33.0767 9.70877V5.69511H34.5235V9.58533ZM40.7809 11.0775H38.76L37.4034 6.77134H37.3807L37.456 11.0775H36.0474V5.69639H38.1531L39.407 9.83297H39.4363L39.3621 5.69639H40.7809V11.0775Z" fill="#2D4F9E"/>
</g>
<defs>
<clipPath id="clip0_417_440">
<rect width="53" height="17" fill="white"/>
</clipPath>
</defs>
</svg>
