<svg width="127" height="42" viewBox="0 0 127 42" fill="none" xmlns="http://www.w3.org/2000/svg">
<path d="M43 36H46V37H43V36Z" fill="black"/>
<path d="M53 34.4274H49.7982V39H48V33H53V34.4274Z" fill="black"/>
<path d="M59 33V38.9121H57.3627V38.2198C57.1429 38.4762 56.8718 38.6704 56.5495 38.8022C56.2344 38.9341 55.8974 39 55.5385 39C54.7619 39 54.1428 38.7766 53.6813 38.3297C53.2271 37.8828 53 37.2198 53 36.3406V33H54.7142V36.0879C54.7142 37.0403 55.1136 37.5165 55.9121 37.5165C56.3297 37.5165 56.663 37.3846 56.9121 37.1209C57.1611 36.8498 57.2857 36.4506 57.2857 35.9231V33H59Z" fill="black"/>
<path d="M66 33V39H64.2504V34.4274H61.7383V39H60V33H66Z" fill="black"/>
<path d="M70.2968 37.6462C70.5936 37.6462 70.8551 37.6029 71.0813 37.5163C71.3145 37.4224 71.53 37.278 71.7279 37.083L72.6077 38.0578C72.0707 38.6859 71.2862 39 70.2545 39C69.6113 39 69.0424 38.8736 68.5477 38.6209C68.053 38.361 67.6714 38.0036 67.4029 37.5487C67.1343 37.0938 67 36.5776 67 36C67 35.4296 67.1307 34.9169 67.3923 34.4621C67.6608 34 68.0248 33.6426 68.4841 33.3898C68.9505 33.1299 69.4735 33 70.053 33C70.5972 33 71.0919 33.1191 71.5371 33.3574C71.9824 33.5884 72.3357 33.9278 72.5971 34.3755C72.8657 34.8158 73 35.3394 73 35.9458L68.781 36.7798C68.9011 37.0686 69.0884 37.2852 69.3428 37.4296C69.6042 37.574 69.9223 37.6462 70.2968 37.6462ZM70.053 34.278C69.636 34.278 69.2968 34.4152 69.0354 34.6896C68.7739 34.9639 68.6361 35.343 68.6219 35.8267L71.3993 35.2743C71.3215 34.9711 71.1626 34.7293 70.9222 34.5487C70.682 34.3682 70.3922 34.278 70.053 34.278Z" fill="black"/>
<path d="M77.0671 33C77.6592 33 78.1756 33.1225 78.6162 33.3676C79.0568 33.6126 79.3975 33.9622 79.6385 34.4162C79.8795 34.8703 80 35.4 80 36.0054C80 36.5964 79.8864 37.1189 79.6592 37.573C79.432 38.0198 79.1119 38.3694 78.6988 38.6216C78.2857 38.8666 77.8106 38.9892 77.2737 38.9892C76.5646 38.9892 76.0103 38.755 75.611 38.2865V41H74V36.0162C74 35.418 74.1274 34.8919 74.3821 34.4378C74.6369 33.9838 74.9948 33.6306 75.4562 33.3784C75.9174 33.1261 76.4544 33 77.0671 33ZM76.9948 37.6054C77.4148 37.6054 77.7556 37.4577 78.0172 37.1621C78.2788 36.8667 78.4096 36.4811 78.4096 36.0054C78.4096 35.5225 78.2788 35.1334 78.0172 34.8378C77.7556 34.5352 77.4148 34.3838 76.9948 34.3838C76.5749 34.3838 76.2341 34.5315 75.9725 34.8271C75.7177 35.1225 75.5904 35.5117 75.5904 35.9946C75.5904 36.4774 75.7177 36.8667 75.9725 37.1621C76.2272 37.4577 76.568 37.6054 76.9948 37.6054Z" fill="black"/>
<path d="M86.5176 39V35.4089L84.8259 38.4201H84.1323L82.4817 35.3977V39H81V33H82.7131L84.5206 36.4684L86.4446 33H87.9787L88 39H86.5176Z" fill="black"/>
<path d="M95 33.0867V38.9133H93.4744V38.2418C93.0786 38.7473 92.5053 39 91.7545 39C91.2356 39 90.7647 38.8772 90.3417 38.6318C89.9251 38.3863 89.5973 38.0361 89.359 37.5813C89.1199 37.1264 89 36.5992 89 36C89 35.4007 89.1199 34.8736 89.359 34.4187C89.5973 33.9639 89.9251 33.6137 90.3417 33.3682C90.7647 33.1227 91.2356 33 91.7545 33C92.4574 33 93.0067 33.2346 93.4025 33.7039V33.0867H95ZM92.0304 37.6137C92.4334 37.6137 92.7676 37.4693 93.0338 37.1805C93.3001 36.8845 93.4336 36.491 93.4336 36C93.4336 35.509 93.3001 35.1191 93.0338 34.8303C92.7676 34.5343 92.4334 34.3863 92.0304 34.3863C91.621 34.3863 91.2836 34.5343 91.0173 34.8303C90.7511 35.1191 90.6175 35.509 90.6175 36C90.6175 36.491 90.7511 36.8845 91.0173 37.1805C91.2836 37.4693 91.621 37.6137 92.0304 37.6137Z" fill="black"/>
<path d="M100.067 33C100.659 33 101.176 33.1225 101.616 33.3676C102.056 33.6126 102.397 33.9622 102.639 34.4162C102.879 34.8703 103 35.4 103 36.0054C103 36.5964 102.886 37.1189 102.659 37.573C102.432 38.0198 102.112 38.3694 101.698 38.6216C101.285 38.8666 100.81 38.9892 100.274 38.9892C99.5641 38.9892 99.0099 38.755 98.6107 38.2865V41H97V36.0162C97 35.418 97.1266 34.8919 97.3815 34.4378C97.6364 33.9838 97.9945 33.6306 98.4558 33.3784C98.9172 33.1261 99.4544 33 100.067 33ZM99.9948 37.6054C100.415 37.6054 100.755 37.4577 101.017 37.1621C101.279 36.8667 101.409 36.4811 101.409 36.0054C101.409 35.5225 101.279 35.1334 101.017 34.8378C100.755 34.5352 100.415 34.3838 99.9948 34.3838C99.5745 34.3838 99.2342 34.5315 98.972 34.8271C98.7172 35.1225 98.5897 35.5117 98.5897 35.9946C98.5897 36.4774 98.7172 36.8667 98.972 37.1621C99.2269 37.4577 99.5681 37.6054 99.9948 37.6054Z" fill="black"/>
<path d="M106.517 36.7249H105.657V39H104V33H105.657V35.3308H106.548L108.099 33H109.862L107.865 35.8773L110 39H108.046L106.517 36.7249Z" fill="black"/>
<path d="M113.297 37.6462C113.594 37.6462 113.855 37.6029 114.081 37.5163C114.315 37.4224 114.53 37.278 114.728 37.083L115.608 38.0578C115.07 38.6859 114.286 39 113.254 39C112.612 39 112.042 38.8736 111.548 38.6209C111.053 38.361 110.671 38.0036 110.403 37.5487C110.135 37.0938 110 36.5776 110 36C110 35.4296 110.131 34.9169 110.392 34.4621C110.661 34 111.025 33.6426 111.484 33.3898C111.95 33.1299 112.474 33 113.053 33C113.597 33 114.092 33.1191 114.537 33.3574C114.982 33.5884 115.335 33.9278 115.597 34.3755C115.865 34.8158 116 35.3394 116 35.9458L111.781 36.7798C111.901 37.0686 112.089 37.2852 112.343 37.4296C112.604 37.574 112.922 37.6462 113.297 37.6462ZM113.053 34.278C112.636 34.278 112.297 34.4152 112.036 34.6896C111.774 34.9639 111.637 35.343 111.622 35.8267L114.399 35.2743C114.321 34.9711 114.162 34.7293 113.922 34.5487C113.682 34.3682 113.392 34.278 113.053 34.278Z" fill="black"/>
<path d="M124.58 33C125.32 33 125.907 33.2198 126.34 33.6593C126.78 34.0915 127 34.7436 127 35.6154V39H125.284V35.8791C125.284 35.4102 125.185 35.0622 124.987 34.8352C124.796 34.6007 124.521 34.4835 124.162 34.4835C123.758 34.4835 123.44 34.6154 123.205 34.8791C122.97 35.1355 122.853 35.5202 122.853 36.033V39H121.136V35.8791C121.136 34.9487 120.762 34.4835 120.014 34.4835C119.618 34.4835 119.303 34.6154 119.068 34.8791C118.833 35.1355 118.716 35.5202 118.716 36.033V39H117V33.0879H118.639V33.7692C118.859 33.5201 119.126 33.3296 119.442 33.1978C119.765 33.0659 120.117 33 120.499 33C120.916 33 121.294 33.0842 121.632 33.2527C121.969 33.4139 122.24 33.652 122.445 33.967C122.688 33.6593 122.992 33.4212 123.359 33.2527C123.733 33.0842 124.14 33 124.58 33Z" fill="black"/>
<path d="M3.00508 39C2.42978 39 1.91201 38.8736 1.45178 38.6209C0.998307 38.361 0.642978 38.0036 0.385787 37.5487C0.128596 37.0938 0 36.5776 0 36C0 35.4224 0.128596 34.9061 0.385787 34.4513C0.642978 33.9964 0.998307 33.6426 1.45178 33.3898C1.91201 33.1299 2.42978 33 3.00508 33C3.58038 33 4.09476 33.1299 4.54822 33.3898C5.00169 33.6426 5.35702 33.9964 5.61422 34.4513C5.8714 34.9061 6 35.4224 6 36C6 36.5776 5.8714 37.0938 5.61422 37.5487C5.35702 38.0036 5.00169 38.361 4.54822 38.6209C4.09476 38.8736 3.58038 39 3.00508 39ZM3.00508 37.6137C3.41117 37.6137 3.74281 37.4693 4 37.1805C4.26396 36.8845 4.39594 36.491 4.39594 36C4.39594 35.509 4.26396 35.1191 4 34.8303C3.74281 34.5343 3.41117 34.3862 3.00508 34.3862C2.59898 34.3862 2.26396 34.5343 2 34.8303C1.73604 35.1191 1.60406 35.509 1.60406 36C1.60406 36.491 1.73604 36.8845 2 37.1805C2.26396 37.4693 2.59898 37.6137 3.00508 37.6137Z" fill="#54C144"/>
<path d="M7 33H8.70643V35.342H11.2826V33H13V39H11.2826V36.7584H8.70643V39H7V33Z" fill="#54C144"/>
<path d="M20 33V38.8798H18.3973V34.3989H16.6507L16.5993 35.4372C16.572 36.2095 16.5034 36.8507 16.3938 37.3607C16.2842 37.8707 16.1062 38.2715 15.8596 38.5628C15.613 38.8543 15.2706 39 14.8322 39C14.5993 39 14.3219 38.9563 14 38.8689L14.0822 37.47C14.1918 37.4845 14.2706 37.4918 14.3185 37.4918C14.5582 37.4918 14.7363 37.4008 14.8528 37.2186C14.976 37.0292 15.0583 36.7924 15.0993 36.5082C15.1404 36.2168 15.1712 35.8343 15.1918 35.3607L15.274 33H20Z" fill="#54C144"/>
<path d="M27 33.0866V38.9133H25.4744V38.2418C25.0785 38.7473 24.5051 39 23.7543 39C23.2355 39 22.7645 38.8772 22.3413 38.6318C21.925 38.3863 21.5973 38.0361 21.3584 37.5812C21.1195 37.1264 21 36.5992 21 36C21 35.4007 21.1195 34.8736 21.3584 34.4187C21.5973 33.9638 21.925 33.6137 22.3413 33.3682C22.7645 33.1227 23.2355 33 23.7543 33C24.4574 33 25.0069 33.2346 25.4028 33.704V33.0866H27ZM24.0307 37.6137C24.4334 37.6137 24.7679 37.4693 25.0341 37.1805C25.3003 36.8845 25.4335 36.491 25.4335 36C25.4335 35.509 25.3003 35.1191 25.0341 34.8303C24.7679 34.5343 24.4334 34.3862 24.0307 34.3862C23.6212 34.3862 23.2833 34.5343 23.017 34.8303C22.7508 35.1191 22.6178 35.509 22.6178 36C22.6178 36.491 22.7508 36.8845 23.017 37.1805C23.2833 37.4693 23.6212 37.6137 24.0307 37.6137Z" fill="#54C144"/>
<path d="M35 33.245V38.9157H33.3626V38.2516C33.1428 38.4976 32.8718 38.6838 32.5494 38.8103C32.2344 38.9368 31.8974 39 31.5385 39C30.7619 39 30.1428 38.7857 29.6813 38.357C29.2271 37.9284 29 37.2925 29 36.4493V33.245H30.7143V36.2068C30.7143 37.1203 31.1135 37.5771 31.912 37.5771C32.3296 37.5771 32.663 37.4506 32.912 37.1976C33.1612 36.9376 33.2857 36.5547 33.2857 36.0488V33.245H35ZM31.9561 32.6337C30.6667 32.6337 30.0183 32.0892 30.011 31H31.1318C31.1392 31.2459 31.2088 31.4392 31.3406 31.5797C31.4798 31.7133 31.6813 31.78 31.9451 31.78C32.2088 31.78 32.4102 31.7133 32.5494 31.5797C32.6959 31.4392 32.7692 31.2459 32.7692 31H33.912C33.9047 32.0892 33.2527 32.6337 31.9561 32.6337Z" fill="#54C144"/>
<path d="M36 33H37.7065V35.342H40.2826V33H42V39H40.2826V36.7584H37.7065V39H36V33Z" fill="#54C144"/>
<path d="M96 28V9H102.599C104.885 9 106.618 9.44368 107.8 10.331C108.982 11.2097 109.573 12.5016 109.573 14.2067C109.573 15.1376 109.335 15.9597 108.861 16.673C108.387 17.3778 107.727 17.8953 106.882 18.2259C107.848 18.4695 108.607 18.9611 109.159 19.7005C109.719 20.44 110 21.3448 110 22.4148C110 24.2418 109.422 25.625 108.266 26.5645C107.11 27.5041 105.463 27.9826 103.324 28H96ZM99.8816 19.7266V24.8551H103.207C104.121 24.8551 104.833 24.6376 105.342 24.2026C105.859 23.7589 106.118 23.1499 106.118 22.3757C106.118 20.6357 105.225 19.7527 103.44 19.7266H99.8816ZM99.8816 16.9602H102.754C104.712 16.9254 105.691 16.1381 105.691 14.5982C105.691 13.737 105.441 13.1193 104.94 12.7452C104.449 12.3623 103.668 12.171 102.599 12.171H99.8816V16.9602Z" fill="black"/>
<path d="M118.994 17.5604L122.838 9H127L120.935 21.1099V28H117.066V21.1099L111 9H115.175L118.994 17.5604Z" fill="black"/>
<path d="M0 9.03229V4H21V9.03229L8.46966 22.9678H21V28H0V22.9678L12.5303 9.03229H0Z" fill="black"/>
<path d="M44 4H24V9H41.1583C41.8689 7.56125 42.7705 6.23992 44 4.9922V4Z" fill="black"/>
<path d="M39.9383 14H24V19H40C39.6755 17.1882 39.6215 15.6955 39.9383 14Z" fill="black"/>
<path d="M24 28V23H41.0172C41.5186 23.9385 42.3769 25.3847 44 26.9405V28H24Z" fill="black"/>
<path d="M90 4H83.6217V16.9685L74.9093 4H67.0016L67 4.95669C73.8812 11.9236 72.4104 21.7645 67 26.9426L67.0016 28H74.9243V15.1286L83.3064 28H90V4Z" fill="black"/>
<path d="M53 0H58V10H53V0Z" fill="#54C144"/>
<path d="M55 30C62.732 30 69 23.6125 69 15.7332C69 9.19838 64.6887 3.6897 58.8064 2V8.67871C61.2315 10.0508 62.8727 12.6872 62.8727 15.7143C62.8727 20.1555 59.3396 23.7559 54.9814 23.7559C50.6233 23.7559 47.0902 20.1555 47.0902 15.7143C47.0902 12.6872 48.7315 10.0508 51.1566 8.67871V2.01072C45.2933 3.7129 41 9.21208 41 15.7332C41 23.6125 47.268 30 55 30Z" fill="#54C144"/>
<path d="M95 26H92V29H95V26Z" fill="black"/>
</svg>
